HIERARCHY
ROOT joint_Root
{
	OFFSET 0.0 0.0 0.0
	CHANNELS 6 Xposition Yposition Zposition Zrotation Xrotation Yrotation 
	JOINT Hips
	{
		OFFSET -0.726466 93.3139 -2.00062
		CHANNELS 6 Xposition Yposition Zposition Zrotation Xrotation Yrotation 
		JOINT Spine
		{
			OFFSET 15.7357 0.0 0.0
			CHANNELS 6 Xposition Yposition Zposition Zrotation Xrotation Yrotation 
			JOINT Chest
			{
				OFFSET 8.98455 -0.406207 0.0
				CHANNELS 6 Xposition Yposition Zposition Zrotation Xrotation Yrotation 
				JOINT Neck
				{
					OFFSET 16.3773 0.0 0.0
					CHANNELS 6 Xposition Yposition Zposition Zrotation Xrotation Yrotation 
					JOINT Head
					{
						OFFSET 6.45672 0.0 0.0
						CHANNELS 6 Xposition Yposition Zposition Zrotation Xrotation Yrotation 
						End Site
						{
							OFFSET 0.0 0.0 0.0
						}
					}
				}
				JOINT Shoulder_L
				{
					OFFSET 12.9942 -0.242716 4.98039
					CHANNELS 6 Xposition Yposition Zposition Zrotation Xrotation Yrotation 
					JOINT UpperArm_L
					{
						OFFSET 5.34809 0.0 0.0
						CHANNELS 6 Xposition Yposition Zposition Zrotation Xrotation Yrotation 
						JOINT LowerArm_L
						{
							OFFSET 24.3286 1.87007e-05 0.0
							CHANNELS 6 Xposition Yposition Zposition Zrotation Xrotation Yrotation 
							JOINT Hand_L
							{
								OFFSET 22.2916 0.0 0.0
								CHANNELS 6 Xposition Yposition Zposition Zrotation Xrotation Yrotation 
								End Site
								{
									OFFSET 0.0 0.0 0.0
								}
							}
						}
					}
				}
				JOINT Shoulder_R
				{
					OFFSET 12.9945 -0.242716 -4.98039
					CHANNELS 6 Xposition Yposition Zposition Zrotation Xrotation Yrotation 
					JOINT UpperArm_R
					{
						OFFSET -5.34813 0.0 0.0
						CHANNELS 6 Xposition Yposition Zposition Zrotation Xrotation Yrotation 
						JOINT LowerArm_R
						{
							OFFSET -24.3289 0.000322201 0.0
							CHANNELS 6 Xposition Yposition Zposition Zrotation Xrotation Yrotation 
							JOINT Hand_R
							{
								OFFSET -22.2915 -0.000108084 0.0
								CHANNELS 6 Xposition Yposition Zposition Zrotation Xrotation Yrotation 
								End Site
								{
									OFFSET 0.0 0.0 0.0
								}
							}
						}
					}
				}
			}
		}
		JOINT UpperLeg_L
		{
			OFFSET -2.19248 -6.46944 0.0
			CHANNELS 6 Xposition Yposition Zposition Zrotation Xrotation Yrotation 
			JOINT LowerLeg_L
			{
				OFFSET 39.0811 0.0 -1.23785e-05
				CHANNELS 6 Xposition Yposition Zposition Zrotation Xrotation Yrotation 
				JOINT Foot_L
				{
					OFFSET 40.9854 0.0 -1.26872e-05
					CHANNELS 6 Xposition Yposition Zposition Zrotation Xrotation Yrotation 
					JOINT Toes_L
					{
						OFFSET 11.7543 0.0 0.0
						CHANNELS 6 Xposition Yposition Zposition Zrotation Xrotation Yrotation 
						End Site
						{
							OFFSET 0.0 0.0 0.0
						}
					}
				}
			}
		}
		JOINT UpperLeg_R
		{
			OFFSET -2.19251 6.46944 0.0
			CHANNELS 6 Xposition Yposition Zposition Zrotation Xrotation Yrotation 
			JOINT LowerLeg_R
			{
				OFFSET -39.0811 -0.00228153 -0.0401928
				CHANNELS 6 Xposition Yposition Zposition Zrotation Xrotation Yrotation 
				JOINT Foot_R
				{
					OFFSET -40.9854 0.0 0.0
					CHANNELS 6 Xposition Yposition Zposition Zrotation Xrotation Yrotation 
					JOINT Toes_R
					{
						OFFSET -11.7543 0.0 0.0
						CHANNELS 6 Xposition Yposition Zposition Zrotation Xrotation Yrotation 
						End Site
						{
							OFFSET 0.0 0.0 0.0
						}
					}
				}
			}
		}
	}
}
MOTION
Frames:	7
Frame Time:	0.0333333
0.000000 0.000000 0.000000 0.000000 0.000000 -0.000000 -1.094600 93.003100 -2.013420 89.069600 -3.640620 1.841960 15.735700 0.000005 -0.000001 94.299400 86.326400 -94.291500 8.984550 -0.406207 -0.000000 -0.439629 0.550115 0.017966 16.377300 -0.000001 -0.000001 0.612893 -2.273870 2.276040 6.456720 -0.000001 -0.000000 7.164160 -1.477780 -3.324600 12.994200 -0.242716 4.980390 -90.375600 1.141720 -71.789200 5.348090 -0.000007 -0.000001 -66.163100 40.529000 -13.875000 24.328600 0.000019 0.000005 4.295510 10.275000 -22.834800 22.291600 -0.000001 0.000005 3.519570 5.467820 -5.289220 12.994500 -0.242716 -4.980390 87.843800 7.034950 -72.912100 -5.348130 -0.000001 -0.000004 -65.970800 37.985200 -10.906300 -24.328900 0.000322 -0.000009 3.170130 9.037230 -19.428800 -22.291500 -0.000108 -0.000004 9.165620 5.376840 -2.199060 -2.192480 -6.469440 -0.000000 -176.673000 -10.360600 -3.197240 39.081100 -0.000007 -0.000012 -0.062540 0.200492 17.324200 40.985400 -0.000006 -0.000013 -0.462045 3.336370 -62.301000 11.754300 -0.000000 0.000003 -0.000002 -0.000024 -16.578400 -2.192510 6.469440 -0.000001 179.449000 11.041600 178.995000 -39.081100 -0.002282 -0.040193 -0.049210 0.201907 14.586300 -40.985400 0.000008 0.000006 1.227170 7.080340 -62.034800 -11.754300 -0.000006 -0.000006 -0.006425 -0.074646 -19.611400
0.000000 0.000000 0.000000 0.000000 0.000000 -0.000000 -1.088060 93.005200 -2.004990 89.045200 -3.672550 1.856350 15.735700 0.000005 -0.000001 94.907000 86.307700 -94.834400 8.984550 -0.406207 -0.000000 -0.408794 0.626369 0.147371 16.377300 -0.000001 -0.000001 0.507258 -2.252950 2.191050 6.456720 -0.000001 -0.000000 7.113660 -1.525590 -3.394110 12.994200 -0.242716 4.980390 -90.447800 1.354290 -71.702100 5.348090 -0.000007 -0.000001 -63.455400 39.891000 -16.037200 24.328600 0.000019 0.000005 5.628020 12.788200 -23.997000 22.291600 -0.000001 0.000005 1.468750 5.465560 -5.205010 12.994500 -0.242716 -4.980390 87.853500 6.999080 -72.902900 -5.348130 -0.000001 -0.000004 -66.094300 37.714000 -10.770300 -24.328900 0.000322 -0.000009 3.160410 9.046030 -19.356300 -22.291500 -0.000108 -0.000004 9.238040 5.376980 -2.203750 -2.192480 -6.469440 -0.000000 -176.658000 -10.312200 -3.167650 39.081100 -0.000007 -0.000012 -0.061969 0.198687 17.322400 40.985400 -0.000006 -0.000013 -0.473462 3.228280 -62.313100 11.754300 -0.000000 0.000003 -0.000002 -0.000023 -16.578400 -2.192510 6.469440 -0.000001 179.461000 11.019800 179.039000 -39.081100 -0.002282 -0.040193 -0.049847 0.205170 14.530700 -40.985400 0.000008 0.000006 1.219920 7.108290 -62.006400 -11.754300 -0.000006 -0.000006 -0.006280 -0.073357 -19.558900
0.000000 0.000000 0.000000 0.000000 0.000000 -0.000000 -1.098450 93.009300 -2.033970 89.040200 -3.639260 1.859750 15.735700 0.000005 -0.000001 95.693500 86.277700 -95.560700 8.984550 -0.406207 -0.000000 -0.359057 0.728958 0.267759 16.377300 -0.000001 -0.000001 0.437258 -2.242320 2.160070 6.456720 -0.000001 -0.000000 6.938400 -1.721620 -3.498230 12.994200 -0.242716 4.980390 -90.491900 1.472760 -71.530600 5.348090 -0.000007 -0.000001 -59.318700 38.166400 -19.506300 24.328600 0.000019 0.000005 7.021220 14.796400 -25.745100 22.291600 -0.000001 0.000005 0.141457 5.464650 -5.171710 12.994500 -0.242716 -4.980390 87.878000 6.954680 -72.985700 -5.348130 -0.000001 -0.000004 -66.285400 37.379300 -10.563800 -24.328900 0.000322 -0.000009 3.160610 9.069270 -19.311900 -22.291500 -0.000108 -0.000004 9.277420 5.377710 -2.226490 -2.192480 -6.469440 -0.000000 -176.652000 -10.242700 -3.186570 39.081100 -0.000007 -0.000012 -0.062047 0.199105 17.308500 40.985400 -0.000006 -0.000013 -0.482784 3.208280 -62.278800 11.754300 -0.000000 0.000003 -0.000000 -0.000007 -16.577700 -2.192510 6.469440 -0.000001 179.479000 11.010600 179.041000 -39.081100 -0.002282 -0.040193 -0.049405 0.203929 14.499200 -40.985400 0.000008 0.000006 1.223580 7.085090 -61.975200 -11.754300 -0.000006 -0.000006 -0.006179 -0.072450 -19.521800
0.000000 0.000000 0.000000 0.000000 0.000000 -0.000000 -1.129950 93.007300 -2.067860 89.050600 -3.589530 1.899100 15.735700 0.000005 -0.000001 96.710700 86.255200 -96.502500 8.984550 -0.406207 -0.000000 -0.329138 0.860308 0.418526 16.377300 -0.000001 -0.000001 0.513932 -2.247020 2.025790 6.456720 -0.000001 -0.000000 6.706600 -1.996230 -3.536040 12.994200 -0.242716 4.980390 -90.492700 1.460430 -71.356700 5.348090 -0.000007 -0.000001 -55.024000 34.112900 -23.271600 24.328600 0.000019 0.000005 7.595690 14.680900 -27.752500 22.291600 -0.000001 0.000005 0.282760 5.462620 -5.096210 12.994500 -0.242716 -4.980390 87.922800 6.861670 -73.112300 -5.348130 -0.000001 -0.000004 -66.348200 37.423000 -10.442600 -24.328900 0.000322 -0.000009 3.158780 9.119950 -19.203000 -22.291500 -0.000108 -0.000004 9.244530 5.375850 -2.168140 -2.192480 -6.469440 -0.000000 -176.633000 -10.264600 -3.190060 39.081100 -0.000007 -0.000012 -0.062210 0.199332 17.332600 40.985400 -0.000006 -0.000013 -0.491638 3.275590 -62.257900 11.754300 -0.000000 0.000003 -0.000001 -0.000012 -16.578000 -2.192510 6.469440 -0.000001 179.487000 11.067900 179.032000 -39.081100 -0.002282 -0.040193 -0.049279 0.202576 14.558500 -40.985400 0.000008 0.000006 1.252040 7.077360 -61.990300 -11.754300 -0.000006 -0.000006 -0.006308 -0.073604 -19.568900
0.000000 0.000000 0.000000 0.000000 0.000000 -0.000000 -1.175900 93.009900 -2.119280 89.056600 -3.468750 1.949440 15.735700 0.000005 -0.000001 97.499400 86.259900 -97.204900 8.984550 -0.406207 -0.000000 -0.352049 0.955220 0.591462 16.377300 -0.000001 -0.000001 0.658349 -2.280460 1.867720 6.456720 -0.000001 -0.000000 6.583780 -2.252590 -3.624470 12.994200 -0.242716 4.980390 -90.427800 1.258710 -71.227000 5.348090 -0.000007 -0.000001 -51.105700 27.874400 -27.144100 24.328600 0.000019 0.000005 7.549240 13.441000 -29.690400 22.291600 -0.000001 0.000005 1.222820 5.463570 -5.132700 12.994500 -0.242716 -4.980390 87.958900 6.745660 -73.121700 -5.348130 -0.000001 -0.000004 -66.338900 37.673800 -10.454600 -24.328900 0.000322 -0.000009 3.149000 9.246720 -18.906200 -22.291500 -0.000108 -0.000004 9.312420 5.378960 -2.265860 -2.192480 -6.469440 -0.000000 -176.594000 -10.256800 -3.177810 39.081100 -0.000007 -0.000012 -0.062125 0.199207 17.320600 40.985400 -0.000006 -0.000013 -0.505653 3.400710 -62.206200 11.754300 -0.000000 0.000003 -0.000001 -0.000011 -16.577900 -2.192510 6.469440 -0.000001 179.497000 11.246000 179.062000 -39.081100 -0.002282 -0.040193 -0.050106 0.205708 14.561900 -40.985400 0.000008 0.000006 1.289160 7.104960 -61.977800 -11.754300 -0.000006 -0.000006 -0.006669 -0.076794 -19.699100
0.000000 0.000000 0.000000 0.000000 0.000000 -0.000000 -1.237480 93.020000 -2.146150 89.095800 -3.333820 1.986790 15.735700 0.000005 -0.000001 97.941100 86.297900 -97.580200 8.984550 -0.406207 -0.000000 -0.435893 0.996861 0.725292 16.377300 -0.000001 -0.000001 0.803369 -2.293520 1.702060 6.456720 -0.000001 -0.000000 6.549620 -2.359940 -3.700400 12.994200 -0.242716 4.980390 -90.218500 0.646593 -71.331900 5.348090 -0.000007 -0.000001 -47.908000 20.051700 -30.995100 24.328600 0.000019 0.000005 7.926990 13.109100 -31.545900 22.291600 -0.000001 0.000005 1.724130 5.465150 -5.190310 12.994500 -0.242716 -4.980390 88.003100 6.594560 -73.111900 -5.348130 -0.000001 -0.000004 -66.530100 37.510800 -10.362600 -24.328900 0.000322 -0.000009 3.184750 9.465070 -18.699400 -22.291500 -0.000108 -0.000004 9.328850 5.376510 -2.189020 -2.192480 -6.469440 -0.000000 -176.586000 -10.198200 -3.107340 39.081100 -0.000007 -0.000012 -0.061498 0.198806 17.188700 40.985400 -0.000006 -0.000013 -0.536270 3.490060 -62.108400 11.754300 -0.000000 0.000003 -0.000001 -0.000008 -16.577800 -2.192510 6.469440 -0.000001 179.487000 11.522100 179.116000 -39.081100 -0.002282 -0.040193 -0.048233 0.199200 14.513000 -40.985400 0.000008 0.000006 1.354700 7.219680 -61.956200 -11.754300 -0.000006 -0.000006 -0.006180 -0.072460 -19.522200
0.000000 0.000000 0.000000 0.000000 0.000000 -0.000000 -1.320660 93.024200 -2.179090 89.062800 -3.242330 1.956930 15.735700 0.000005 -0.000001 98.098900 86.345700 -97.661500 8.984550 -0.406207 -0.000000 -0.533918 0.997768 0.879012 16.377300 -0.000001 -0.000001 0.845099 -2.257480 1.575190 6.456720 -0.000001 -0.000000 6.512420 -2.353390 -3.820740 12.994200 -0.242716 4.980390 -89.998500 -0.004449 -71.317800 5.348090 -0.000007 -0.000001 -44.642800 11.581100 -35.396500 24.328600 0.000019 0.000005 8.252320 12.949200 -32.911800 22.291600 -0.000001 0.000005 2.289590 5.460810 -5.030570 12.994500 -0.242716 -4.980390 88.012500 6.505100 -72.970000 -5.348130 -0.000001 -0.000004 -66.520100 37.295400 -10.450200 -24.328900 0.000322 -0.000009 3.150370 9.385470 -18.655900 -22.291500 -0.000108 -0.000004 9.241380 5.374420 -2.123800 -2.192480 -6.469440 -0.000000 -176.504000 -10.138400 -3.177600 39.081100 -0.000007 -0.000012 -0.061586 0.199064 17.190900 40.985400 -0.000006 -0.000013 -0.587258 3.533460 -62.063700 11.754300 -0.000000 0.000003 -0.000001 -0.000014 -16.578000 -2.192510 6.469440 -0.000001 179.574000 11.693900 179.114000 -39.081100 -0.002282 -0.040193 -0.048005 0.199365 14.440100 -40.985400 0.000008 0.000006 1.418920 7.293890 -61.920300 -11.754300 -0.000006 -0.000006 -0.006627 -0.076430 -19.684200
